<?xml version="1.0" standalone="no"?>
<!DOCTYPE svg PUBLIC "-//W3C//DTD SVG 20010904//EN"
 "http://www.w3.org/TR/2001/REC-SVG-20010904/DTD/svg10.dtd">
<svg version="1.0" xmlns="http://www.w3.org/2000/svg"
 width="260.000000pt" height="260.000000pt" viewBox="0 0 260.000000 260.000000"
 preserveAspectRatio="xMidYMid meet">
<metadata>
Created by potrace 1.11, written by Peter Selinger 2001-2013
</metadata>
<g transform="translate(0.000000,260.000000) scale(0.100000,-0.100000)"
fill="#000000" stroke="none">
<path d="M396 2584 c-182 -44 -337 -201 -381 -385 -22 -96 -22 -1702 0 -1798
44 -187 199 -342 386 -386 96 -22 1702 -22 1798 0 187 44 342 199 386 386 22
96 22 1702 0 1798 -44 187 -199 342 -386 386 -92 21 -1713 21 -1803 -1z m1384
-1076 c0 -458 -3 -587 -15 -640 -44 -210 -190 -353 -412 -402 -94 -21 -272
-21 -366 0 -254 56 -415 238 -442 497 l-7 67 226 0 226 0 0 -28 c0 -42 41
-114 79 -139 24 -16 49 -23 83 -23 69 0 114 24 141 74 22 41 22 46 25 604 l3
562 230 0 229 0 0 -572z"/>
</g>
</svg>
